<?xml version="1.0" encoding="UTF-8" standalone="no"?>
<svg
   xmlns:dc="http://purl.org/dc/elements/1.1/"
   xmlns:cc="http://creativecommons.org/ns#"
   xmlns:rdf="http://www.w3.org/1999/02/22-rdf-syntax-ns#"
   xmlns:svg="http://www.w3.org/2000/svg"
   xmlns="http://www.w3.org/2000/svg"
   xmlns:sodipodi="http://sodipodi.sourceforge.net/DTD/sodipodi-0.dtd"
   xmlns:inkscape="http://www.inkscape.org/namespaces/inkscape"
   version="1.1"
   id="svg4096"
   viewBox="0 0 32 32"
   height="32"
   width="32"
   inkscape:version="0.91 r13725"
   sodipodi:docname="app.svg">
  <sodipodi:namedview
     pagecolor="#ffffff"
     bordercolor="#666666"
     borderopacity="1"
     objecttolerance="10"
     gridtolerance="10"
     guidetolerance="10"
     inkscape:pageopacity="0"
     inkscape:pageshadow="2"
     inkscape:window-width="798"
     inkscape:window-height="1186"
     id="namedview7"
     showgrid="false"
     inkscape:zoom="20.5625"
     inkscape:cx="16"
     inkscape:cy="16"
     inkscape:window-x="0"
     inkscape:window-y="12"
     inkscape:window-maximized="0"
     inkscape:current-layer="svg4096" />
  <defs
     id="defs4098" />
  <metadata
     id="metadata4101">
    <rdf:RDF>
      <cc:Work
         rdf:about="">
        <dc:format>image/svg+xml</dc:format>
        <dc:type
           rdf:resource="http://purl.org/dc/dcmitype/StillImage" />
        <dc:title></dc:title>
      </cc:Work>
    </rdf:RDF>
  </metadata>
  <g
     transform="translate(0,-1020.3622)"
     id="layer1"
     style="fill:#ffffff">
    <path
       style="fill:#ffffff"
       id="path2989"
       d="m 11.168042,1021.5246 c -2.2036689,-1.0138 -6.5467059,0.9451 -7.7942059,2.6697 -0.555819,0.7717 -0.516525,1.3278 -0.516525,1.6433 l 0,16.8796 16.2867569,8.8577 3.062736,-1.4617 0,-16.4387 -16.7222168,-8.3914 c 0.897356,-0.9871 2.9155749,-2.1908 4.4288007,-1.7074 l 14.8949581,6.9633 0,18.3129 3.070508,-1.4642 0,-18.3122 z" />
  </g>
  <text
     xml:space="preserve"
     style="font-style:normal;font-weight:normal;font-size:40px;line-height:125%;font-family:sans-serif;letter-spacing:0px;word-spacing:0px;fill:#000000;fill-opacity:1;stroke:none;stroke-width:1px;stroke-linecap:butt;stroke-linejoin:miter;stroke-opacity:1"
     x="4.7659574"
     y="11.6231"
     id="text3335"
     sodipodi:linespacing="125%"><tspan
       sodipodi:role="line"
       id="tspan3337"
       x="4.7659574"
       y="11.6231"></tspan></text>
  <path
     inkscape:connector-curvature="0"
     d="m 10.49012,22.464615 -3.7773658,-6.800426 4.5440898,-2.201163 1.259258,2.266597 -3.0296238,1.467379 1.2591488,2.266823 4.54409,-2.201162 -3.290553,-5.923647 C 11.730489,10.855032 11.250429,10.589741 10.926916,10.74647 l -6.4023569,3.101677 c -0.3232373,0.156596 -0.3674685,0.675885 -0.098794,1.159868 l 5.322202,9.580704 c 0.2689279,0.484123 0.7489899,0.749415 1.0722499,0.592546 l 6.402424,-3.10145 c 0.32326,-0.156869 0.367492,-0.676158 0.09879,-1.159868 l -0.772645,-1.390597 -6.05867,2.935265 z"
     id="path4015-6"
     style="fill:#000000" />
</svg>
